<?xml version="1.0" encoding="utf-8"?>
<!-- Generator: Adobe Illustrator 27.5.0, SVG Export Plug-In . SVG Version: 6.00 Build 0)  -->
<svg version="1.1" id="Layer_1" xmlns="http://www.w3.org/2000/svg" xmlns:xlink="http://www.w3.org/1999/xlink" x="0px" y="0px"
	 viewBox="0 0 500 500" style="enable-background:new 0 0 500 500;" xml:space="preserve">
<style type="text/css">
	.st0{fill:#7B8DA3;}
	.st1{fill:#FFEEE0;}
	.st2{stroke:#000000;stroke-width:1.15;stroke-miterlimit:10;}
</style>
<g id="Layer_2_00000031193252199241111440000002075258350589538217_">
	<g>
		<circle class="st0" cx="250.5" cy="249.5" r="246.5"/>
	</g>
</g>
<g id="Layer_3">
	<path class="st1" d="M235.5,256c1.2,0.8,1.4,0.5,1.5-0.1c-2-3.7-3.8-11-3.3-11.2c7.6,11.7,26.9,34.4,31,36.3
		c0.7,0.3,0.9,0.1,1.3-0.6c4.9-15.2,14.7-33.8,24.5-50.7l6.3-9.6c6.8,19.4,17.4,30.3,18.6,31c-0.9-2.4-3.4-23.8-3.4-27.1
		c4.5,15.3,27.1,38.6,29.4,41.3c0.9,15.3-0.6,22.4-4.1,31.6c-0.3,0.9,0.5,1.1,1.3,0.7c20.8-11,28.2-30.4,31.9-41.6
		c3.5-1.3,9.2,2.1,13.4,5.6c2.5,40.6-19.7,45.4-34.5,45.4c-15.2,30.6-55.4,36.7-74.1,37.8V358l-20.8,14l-21.3-14v-12.8l0,0
		c-32.3-3.4-68.4-16.8-76-37.4c-34.7,0-32.8-28.1-32.8-36.9c4.1-11.6,11-11.5,15.6-10.2c6.6,29,25.8,38.6,32.5,40.3
		c0.8,0.2,1.5,0.3,1.4-0.4c-0.1-0.4-0.3-1.6-0.3-2.1c-0.2-2.8-0.9-10.8,1.9-24.6c4-15.1,9.3-35.2,22.8-59.1
		c6.1,7.9,9,12.3,18.6,23.2C228.7,251.9,234.3,254.9,235.5,256L235.5,256z"/>
	<path class="st2" d="M79.6,167.3c0,0,22.8-8.4,38.1-45.6c21-39.8,78.4-55.2,92.5-56.9c9.4-9.6,20.3-18.6,24.9-20.7
		c-6,6.3-12.8,14.2-15.3,17.6c32.4-7.5,65.7-7.5,94.1,5.8s83.4,55.5,91.1,62.1c-16.3-1.5-25.3-0.2-27.8,0.6
		c3.8,4.6,37.4,61.9,22.6,115.3c-6.1-4-6.6-6.1-7.3-2.5s-3.2,15.6-8.8,18c-8.1-6.4-11.8-6.1-13.8-5.4c-1,4.4-9.7,31.6-32.2,41.7
		c-0.2,0.1-0.3-0.1-0.3-0.3c6.6-17.1,3.7-27.3,4.2-31.9c-6-5.8-24.4-25.4-30-41.2c1.8,19.7,2.5,24.6,3.5,26.8
		c0.1,0.2-0.1,0.3-0.3,0.2c-5.8-7-13.1-16.5-18.1-31.5c-10.7,14.9-27.5,47.5-31.3,61.1c-0.1,0.3-0.4,0.4-0.7,0.3
		c-12.4-9.8-29.6-34-31.8-37.8c0.2,4.3,2,9.8,3.6,13.1c0.1,0.2-0.1,0.3-0.3,0.2c-5.6-3.6-18-15-38.2-41.8
		c-25.5,46.7-26.5,79.4-24.6,86.2c0.3,1.4-26.4-6.3-33.4-40.5c-10-2.8-14.2,5.5-16.1,9.9c-2.7-2.1-8.8-11.1-16.4-28.9
		c0,0-10.9,9.4-19.7,13.2c10.4-23.1,11.9-59.4,14.6-86.1C92.2,169.7,79.6,167.3,79.6,167.3L79.6,167.3z"/>
	<path d="M322.5,333c0,0,1.8,4.5,4.3,12.5c6,4.3,12.1,16.7,14,27.6c11.9,15.9,22.3,38.8,27.1,73H140.4c5.8-35.8,19.2-60.8,28-72.9
		c1.4-11.1,7.6-24.7,11.5-27.8c0.4-3.7,2.2-8.1,5.9-12.5c14.5,6.6,35.4,11.1,47.4,12.2V358l21.3,14l20.6-14v-13.2
		C275.1,344.8,300.5,344.1,322.5,333L322.5,333z"/>
	<ellipse cx="202.8" cy="266.2" rx="20.1" ry="27.6"/>
	<ellipse cx="305.4" cy="266.2" rx="20.1" ry="27.6"/>
</g>
</svg>
