<?xml version="1.0" standalone="no"?>
<!DOCTYPE svg PUBLIC "-//W3C//DTD SVG 20010904//EN"
 "http://www.w3.org/TR/2001/REC-SVG-20010904/DTD/svg10.dtd">
<svg version="1.0" xmlns="http://www.w3.org/2000/svg"
 width="700.000000pt" height="700.000000pt" viewBox="0 0 700.000000 700.000000"
 preserveAspectRatio="xMidYMid meet">
<metadata>
Created by potrace 1.14, written by Peter Selinger 2001-2017
</metadata>
<g transform="translate(0.000000,700.000000) scale(0.100000,-0.100000)"
fill="#000000" stroke="none">
<path d="M3318 6955 c-2 -2 -50 -6 -108 -10 -57 -4 -107 -8 -110 -10 -3 -2
-30 -6 -60 -9 -190 -20 -479 -92 -726 -180 -166 -59 -428 -186 -588 -283 -87
-53 -276 -179 -286 -192 -3 -3 -30 -25 -60 -47 -151 -113 -384 -338 -515 -497
-22 -27 -45 -54 -50 -60 -13 -15 -96 -125 -150 -201 -116 -163 -283 -476 -368
-691 -101 -253 -186 -587 -213 -830 -3 -33 -8 -69 -10 -79 -21 -114 -21 -583
1 -731 2 -16 7 -51 10 -77 27 -230 121 -595 214 -827 99 -245 248 -517 402
-731 74 -104 101 -139 204 -260 51 -60 277 -283 355 -351 400 -345 884 -597
1390 -724 74 -19 146 -36 160 -38 14 -3 63 -12 110 -20 47 -9 112 -19 145 -23
33 -3 74 -8 90 -10 67 -8 256 -17 360 -17 427 0 847 80 1259 240 919 357 1672
1142 1991 2074 38 112 80 249 90 297 2 9 10 46 19 82 8 36 18 81 21 100 3 19
10 58 15 85 6 28 12 70 15 95 3 25 7 61 10 80 13 101 18 183 19 365 2 214 -3
305 -30 510 -77 590 -330 1182 -713 1665 -90 114 -126 154 -256 286 -89 90
-129 127 -242 226 -103 89 -417 308 -442 308 -5 0 -11 4 -13 10 -3 9 -319 171
-383 197 -16 7 -52 21 -78 32 -69 30 -339 119 -411 137 -210 51 -371 79 -581
100 -64 6 -482 14 -487 9z"/>
</g>
</svg>
